<?xml version="1.0" standalone="no"?><!DOCTYPE svg PUBLIC "-//W3C//DTD SVG 1.1//EN" "http://www.w3.org/Graphics/SVG/1.1/DTD/svg11.dtd"><svg class="icon" width="30px" height="30.00px" viewBox="0 0 1024 1024" version="1.1" xmlns="http://www.w3.org/2000/svg"><path fill="#333333" d="M566.4 131.2c-16 0-38.4 9.6-64 22.4L204.8 332.8s-3.2 0-3.2 3.2H70.4C48 336 32 352 32 374.4v268.8c0 22.4 16 38.4 38.4 38.4h124.8l6.4 6.4 297.6 179.2c25.6 16 48 22.4 64 22.4 9.6 0 16-3.2 16-12.8v-736c3.2-6.4-3.2-9.6-12.8-9.6zM185.6 604.8h-76.8v-192h76.8v192z m320 176l-240-144V390.4l240-144v534.4z m185.6-448c-19.2-6.4-41.6 6.4-48 25.6-6.4 19.2 6.4 41.6 25.6 48 44.8 12.8 73.6 54.4 73.6 102.4 0 44.8-28.8 86.4-73.6 99.2-19.2 6.4-32 28.8-25.6 48 6.4 16 19.2 25.6 38.4 25.6 3.2 0 6.4 0 12.8-3.2 76.8-25.6 128-96 128-176-3.2-76.8-54.4-147.2-131.2-169.6z"  /><path fill="#333333" d="M825.6 227.2c-19.2-9.6-41.6-3.2-54.4 16-9.6 19.2-3.2 41.6 16 51.2C864 336 912 419.2 912 505.6c0 86.4-44.8 166.4-121.6 208-19.2 9.6-25.6 35.2-12.8 54.4 6.4 12.8 19.2 19.2 35.2 19.2 6.4 0 12.8-3.2 19.2-6.4 99.2-57.6 160-163.2 160-275.2 0-115.2-64-220.8-166.4-278.4z"  /></svg>