<?xml version="1.0" standalone="no"?><!DOCTYPE svg PUBLIC "-//W3C//DTD SVG 1.1//EN" "http://www.w3.org/Graphics/SVG/1.1/DTD/svg11.dtd"><svg t="1599098371141" class="icon" viewBox="0 0 1024 1024" version="1.1" xmlns="http://www.w3.org/2000/svg" p-id="3008" width="50" height="50" xmlns:xlink="http://www.w3.org/1999/xlink"><defs><style type="text/css"></style></defs><path d="M512 0C229.205 0 0 229.24 0 512s229.24 512 512 512 512-229.24 512-512S794.726 0 512 0z m264.124 873.301c-54.99-4.983-156.536-27.58-157.457-126.634-0.342-29.32-13.278-49.016 0-64 15.667-17.784 35.396-65.741 42.666-106.667 2.868-16.282 42.053-21.811 42.667-64 19.32-21.026-0.137-59.017 0-85.333 0.273-65.297 7.27-127.693-21.333-170.667-84.651-127.18-253.884-125.986-341.334 0C314.54 294.605 319.83 361.097 320 426.667c0.068 26.897-22.733 62.976 0 85.333 0 42.394 37.342 40.823 42.667 64 9.557 41.54 21.299 85.402 42.666 106.667 20.89 20.787 0.273 34.68 0 64-0.955 99.055-102.502 121.617-157.457 126.634C136.567 791.791 64 660.548 64 512 64 264.567 264.533 64 512 64c247.433 0 448 200.567 448 448 0 148.548-72.602 279.79-183.876 361.301z" fill="#515151" p-id="3009"></path></svg>