<?xml version="1.0" standalone="no"?><!DOCTYPE svg PUBLIC "-//W3C//DTD SVG 1.1//EN" "http://www.w3.org/Graphics/SVG/1.1/DTD/svg11.dtd"><svg t="1598886643894" class="icon" viewBox="0 0 1204 1024" version="1.1" xmlns="http://www.w3.org/2000/svg" p-id="5360" xmlns:xlink="http://www.w3.org/1999/xlink" width="23.515625" height="20"><defs><style type="text/css"></style></defs><path d="M1204.705882 503.988706a50.838588 50.838588 0 0 0-13.914353-35.177412L715.414588 11.625412A40.357647 40.357647 0 0 0 687.525647 0a45.658353 45.658353 0 0 0-43.068235 48.188235v202.390589A784.504471 784.504471 0 0 0 0 994.966588 29.575529 29.575529 0 0 0 27.888941 1024a26.322824 26.322824 0 0 0 15.540706-5.180235 1450.465882 1450.465882 0 0 1 159.382588-111.49553 1127.905882 1127.905882 0 0 1 441.22353-134.26447v187.51247a45.598118 45.598118 0 0 0 43.068235 48.188236 39.996235 39.996235 0 0 0 26.744471-10.842353l475.376941-457.246118a50.055529 50.055529 0 0 0 15.119059-36.562824z m-474.051764 351.412706V669.214118l-46.320942 3.855058c-187.211294 15.480471-436.464941 76.197647-577.355294 188.476236a677.767529 677.767529 0 0 1 585.60753-521.818353l38.068706-5.059765V153.057882l365.025882 351.171765z m0 0" fill="#666666" p-id="5361"></path></svg>