<?xml version="1.0" standalone="no"?><!DOCTYPE svg PUBLIC "-//W3C//DTD SVG 1.1//EN" "http://www.w3.org/Graphics/SVG/1.1/DTD/svg11.dtd"><svg t="1597052288271" class="icon" viewBox="0 0 1024 1024" version="1.1" xmlns="http://www.w3.org/2000/svg" p-id="6512" xmlns:xlink="http://www.w3.org/1999/xlink" width="80" height="80"><defs><style type="text/css"></style></defs><path d="M943.189333 107.875556a28.472889 28.472889 0 0 0-26.026666-26.865778L549.475556 44.643556a28.302222 28.302222 0 0 0-22.912 8.192L93.155556 486.272c-65.009778 65.009778-65.009778 104.661333 0 169.656889l275.029333 275.057778c29.141333 29.155556 54.712889 48.526222 84.835555 48.526222s55.694222-19.427556 84.778667-48.540445l433.479111-433.464888a28.401778 28.401778 0 0 0 8.192-22.912L943.189333 107.875556zM497.592889 890.752c-13.667556 13.667556-33.166222 31.857778-44.572445 31.857778-11.420444 0-30.933333-18.190222-44.615111-31.857778L133.376 615.694222c-42.510222-42.496-42.510222-46.691556 0-89.187555L557.312 102.570667l331.420444 32.796444 32.824889 331.434667-423.964444 423.950222z" fill="" p-id="6513"></path><path d="M341.944889 391.054222l-129.28 129.265778c-32.64 32.64-41.6 54.769778-4.224 92.145778a14.179556 14.179556 0 0 0 20.110222 0 14.208 14.208 0 0 0 0-20.110222c-22.286222-22.286222-22.016-25.671111 4.224-51.925334l129.28-129.265778a14.208 14.208 0 1 0-20.110222-20.110222zM382.407111 350.563556l-11.562667 11.576888a14.208 14.208 0 1 0 20.138667 20.081778l11.562667-11.576889a14.208 14.208 0 1 0-20.138667-20.081777zM719.701333 182.926222c-65.009778 0-117.944889 52.906667-117.944889 117.930667 0 65.024 52.935111 117.930667 117.944889 117.930667 65.038222 0 117.916444-52.906667 117.916445-117.930667 0-65.024-52.892444-117.930667-117.916445-117.930667z m0 178.972445a61.127111 61.127111 0 0 1-61.056-61.041778 61.127111 61.127111 0 0 1 61.056-61.041778 61.084444 61.084444 0 0 1 61.027556 61.041778 61.098667 61.098667 0 0 1-61.027556 61.041778z" fill="" p-id="6514"></path></svg>